<mxfile host="app.diagrams.net" modified="2024-03-12T06:37:22.065Z" agent="Mozilla/5.0 (Windows NT 10.0; Win64; x64) AppleWebKit/537.36 (KHTML, like Gecko) Chrome/122.0.0.0 Safari/537.36 Edg/122.0.0.0" version="24.0.2" etag="q4cIhjSWpN0s0AwKGGkL" type="github">
  <diagram name="第 1 页" id="ewJm12hQBzFV8EKIYZHW">
    <mxGraphModel>
      <root>
        <mxCell id="0" />
        <mxCell id="1" parent="0" />
      </root>
    </mxGraphModel>
  </diagram>
</mxfile>
